<?xml version="1.0" encoding="UTF-8" standalone="no"?>
<svg
   width="21"
   height="21"
   viewBox="0 0 21 21"
   fill="none"
   version="1.1"
   id="svg4"
   sodipodi:docname="close.svg"
   inkscape:version="1.2.2 (b0a8486541, 2022-12-01)"
   xmlns:inkscape="http://www.inkscape.org/namespaces/inkscape"
   xmlns:sodipodi="http://sodipodi.sourceforge.net/DTD/sodipodi-0.dtd"
   xmlns="http://www.w3.org/2000/svg"
   xmlns:svg="http://www.w3.org/2000/svg">
  <defs
     id="defs8" />
  <sodipodi:namedview
     id="namedview6"
     pagecolor="#ffffff"
     bordercolor="#666666"
     borderopacity="1.0"
     inkscape:showpageshadow="2"
     inkscape:pageopacity="0.0"
     inkscape:pagecheckerboard="0"
     inkscape:deskcolor="#d1d1d1"
     showgrid="false"
     inkscape:zoom="19.238095"
     inkscape:cx="19.960396"
     inkscape:cy="13.566832"
     inkscape:window-width="1920"
     inkscape:window-height="1011"
     inkscape:window-x="0"
     inkscape:window-y="0"
     inkscape:window-maximized="1"
     inkscape:current-layer="svg4" />
  <path
     id="path2"
     d="M 2 0 C 1.4881563 1.2499987e-07 0.97646411 0.19541339 0.5859375 0.5859375 C -0.19511072 1.3669907 -0.19510972 2.6330233 0.5859375 3.4140625 L 7.3535156 10.181641 L 0.5859375 16.949219 C -0.19510772 17.730318 -0.19511172 18.996245 0.5859375 19.777344 C 1.3669897 20.558343 2.6330133 20.558343 3.4140625 19.777344 L 10.181641 13.009766 L 16.949219 19.777344 C 17.730318 20.558343 18.996245 20.558343 19.777344 19.777344 C 20.558343 18.996245 20.558343 17.730318 19.777344 16.949219 L 13.009766 10.181641 L 19.777344 3.4140625 C 20.558343 2.6330133 20.558343 1.3669897 19.777344 0.5859375 C 18.996245 -0.19511172 17.730318 -0.19510772 16.949219 0.5859375 L 10.181641 7.3535156 L 3.4140625 0.5859375 C 3.0235429 0.19541389 2.5118437 -1.2499987e-07 2 0 z "
     style="fill:#000000" />
</svg>
